<svg width="1841" height="1305" xmlns="http://www.w3.org/2000/svg" xmlns:xlink="http://www.w3.org/1999/xlink" xml:space="preserve" overflow="hidden"><defs><clipPath id="clip0"><rect x="317" y="284" width="1841" height="1305"/></clipPath></defs><g clip-path="url(#clip0)" transform="translate(-317 -284)"><rect x="317" y="284" width="1841" height="1305" fill="#FFFFFF"/><g><path d="M0 0 0.000360892 859" stroke="#D9D9D9" stroke-width="3.4375" stroke-linejoin="round" stroke-miterlimit="10" fill="none" fill-rule="evenodd" transform="matrix(1 0 0 -1 888.5 1434.5)"/></g><g><path d="M931.5 1404.55 888.5 1404.55M888.5 1393.5 888.5 1414.5" stroke="#BFBFBF" stroke-width="9.16667" stroke-linejoin="round" stroke-miterlimit="10" fill="none"/></g><g><path d="M975.5 1342.54 888.5 1342.54M888.5 1332.5 888.5 1353.5" stroke="#BFBFBF" stroke-width="9.16667" stroke-linejoin="round" stroke-miterlimit="10" fill="none"/></g><g><path d="M983.5 1281.54 888.5 1281.54M888.5 1271.5 888.5 1291.5" stroke="#BFBFBF" stroke-width="9.16667" stroke-linejoin="round" stroke-miterlimit="10" fill="none"/></g><g><path d="M1035.5 1158.54 888.5 1158.54M888.5 1148.5 888.5 1169.5" stroke="#BFBFBF" stroke-width="9.16667" stroke-linejoin="round" stroke-miterlimit="10" fill="none"/></g><g><path d="M1044.5 1097.54 888.5 1097.54M888.5 1087.5 888.5 1107.5" stroke="#BFBFBF" stroke-width="9.16667" stroke-linejoin="round" stroke-miterlimit="10" fill="none"/></g><g><path d="M1070.5 1035.53 888.5 1035.53M888.5 1025.5 888.5 1046.5" stroke="#BFBFBF" stroke-width="9.16667" stroke-linejoin="round" stroke-miterlimit="10" fill="none"/></g><g><path d="M1105.5 974.532 888.5 974.532M888.5 964.5 888.5 984.5" stroke="#BFBFBF" stroke-width="9.16667" stroke-linejoin="round" stroke-miterlimit="10" fill="none"/></g><g><path d="M1113.5 913.53 888.5 913.53M888.5 902.5 888.5 923.5" stroke="#BFBFBF" stroke-width="9.16667" stroke-linejoin="round" stroke-miterlimit="10" fill="none"/></g><g><path d="M1226.5 851.528 888.5 851.528M888.5 841.5 888.5 862.5" stroke="#BFBFBF" stroke-width="9.16667" stroke-linejoin="round" stroke-miterlimit="10" fill="none"/></g><g><path d="M1382.5 790.526 888.5 790.526M888.5 780.5 888.5 800.5" stroke="#BFBFBF" stroke-width="9.16667" stroke-linejoin="round" stroke-miterlimit="10" fill="none"/></g><g><path d="M1408.5 729.524 888.5 729.524M888.5 718.5 888.5 739.5" stroke="#BFBFBF" stroke-width="9.16667" stroke-linejoin="round" stroke-miterlimit="10" fill="none"/></g><g><path d="M1815.5 667.522 888.5 667.522M888.5 657.5 888.5 678.5" stroke="#BFBFBF" stroke-width="9.16667" stroke-linejoin="round" stroke-miterlimit="10" fill="none"/></g><g><path d="M1954.5 606.52 888.5 606.52M888.5 596.5 888.5 616.5" stroke="#BFBFBF" stroke-width="9.16667" stroke-linejoin="round" stroke-miterlimit="10" fill="none"/></g><g><path d="M942.704 1404.01C942.704 1410.08 937.779 1415 931.704 1415 925.629 1415 920.705 1410.08 920.705 1404.01 920.705 1397.93 925.629 1393.01 931.704 1393.01 937.779 1393.01 942.704 1397.93 942.704 1404.01Z" stroke="#C00000" stroke-width="22.9167" stroke-linejoin="round" stroke-miterlimit="10" fill="#C00000"/><path d="M986.704 1342.01C986.704 1348.08 981.779 1353 975.704 1353 969.629 1353 964.705 1348.08 964.705 1342.01 964.705 1335.93 969.629 1331.01 975.704 1331.01 981.779 1331.01 986.704 1335.93 986.704 1342.01Z" stroke="#C00000" stroke-width="22.9167" stroke-linejoin="round" stroke-miterlimit="10" fill="#C00000"/><path d="M994.704 1281C994.704 1287.08 989.779 1292 983.704 1292 977.629 1292 972.705 1287.08 972.705 1281 972.705 1274.93 977.629 1270.01 983.704 1270.01 989.779 1270.01 994.704 1274.93 994.704 1281Z" stroke="#C00000" stroke-width="22.9167" stroke-linejoin="round" stroke-miterlimit="10" fill="#C00000"/><path d="M1046.7 1158C1046.7 1164.08 1041.78 1169 1035.7 1169 1029.63 1169 1024.7 1164.08 1024.7 1158 1024.7 1151.93 1029.63 1147.01 1035.7 1147.01 1041.78 1147.01 1046.7 1151.93 1046.7 1158Z" stroke="#C00000" stroke-width="22.9167" stroke-linejoin="round" stroke-miterlimit="10" fill="#C00000"/><path d="M1055.7 1097.01C1055.7 1103.08 1050.78 1108 1044.7 1108 1038.63 1108 1033.7 1103.08 1033.7 1097.01 1033.7 1090.93 1038.63 1086.01 1044.7 1086.01 1050.78 1086.01 1055.7 1090.93 1055.7 1097.01Z" stroke="#C00000" stroke-width="22.9167" stroke-linejoin="round" stroke-miterlimit="10" fill="#C00000"/><path d="M1081.7 1035C1081.7 1041.08 1076.78 1046 1070.7 1046 1064.63 1046 1059.7 1041.08 1059.7 1035 1059.7 1028.93 1064.63 1024.01 1070.7 1024.01 1076.78 1024.01 1081.7 1028.93 1081.7 1035Z" stroke="#C00000" stroke-width="22.9167" stroke-linejoin="round" stroke-miterlimit="10" fill="#C00000"/><path d="M1116.7 974.005C1116.7 980.08 1111.78 985.005 1105.7 985.005 1099.63 985.005 1094.7 980.08 1094.7 974.005 1094.7 967.93 1099.63 963.005 1105.7 963.005 1111.78 963.005 1116.7 967.93 1116.7 974.005Z" stroke="#C00000" stroke-width="22.9167" stroke-linejoin="round" stroke-miterlimit="10" fill="#C00000"/><path d="M1124.7 913.005C1124.7 919.08 1119.78 924.005 1113.7 924.005 1107.63 924.005 1102.7 919.08 1102.7 913.005 1102.7 906.93 1107.63 902.005 1113.7 902.005 1119.78 902.005 1124.7 906.93 1124.7 913.005Z" stroke="#C00000" stroke-width="22.9167" stroke-linejoin="round" stroke-miterlimit="10" fill="#C00000"/><path d="M1237.7 851.005C1237.7 857.08 1232.78 862.004 1226.7 862.004 1220.63 862.004 1215.7 857.08 1215.7 851.005 1215.7 844.93 1220.63 840.005 1226.7 840.005 1232.78 840.005 1237.7 844.93 1237.7 851.005Z" stroke="#C00000" stroke-width="22.9167" stroke-linejoin="round" stroke-miterlimit="10" fill="#C00000"/><path d="M1393.7 790.005C1393.7 796.08 1388.78 801.005 1382.7 801.005 1376.63 801.005 1371.7 796.08 1371.7 790.005 1371.7 783.93 1376.63 779.005 1382.7 779.005 1388.78 779.005 1393.7 783.93 1393.7 790.005Z" stroke="#C00000" stroke-width="22.9167" stroke-linejoin="round" stroke-miterlimit="10" fill="#C00000"/><path d="M1419.7 729.005C1419.7 735.08 1414.78 740.004 1408.7 740.004 1402.63 740.004 1397.7 735.08 1397.7 729.005 1397.7 722.93 1402.63 718.005 1408.7 718.005 1414.78 718.005 1419.7 722.93 1419.7 729.005Z" stroke="#C00000" stroke-width="22.9167" stroke-linejoin="round" stroke-miterlimit="10" fill="#C00000"/><path d="M1826.7 667.005C1826.7 673.08 1821.78 678.005 1815.7 678.005 1809.63 678.005 1804.7 673.08 1804.7 667.005 1804.7 660.93 1809.63 656.005 1815.7 656.005 1821.78 656.005 1826.7 660.93 1826.7 667.005Z" stroke="#C00000" stroke-width="22.9167" stroke-linejoin="round" stroke-miterlimit="10" fill="#C00000"/><path d="M1965.7 606.005C1965.7 612.08 1960.78 617.004 1954.7 617.004 1948.63 617.004 1943.7 612.08 1943.7 606.005 1943.7 599.93 1948.63 595.005 1954.7 595.005 1960.78 595.005 1965.7 599.93 1965.7 606.005Z" stroke="#C00000" stroke-width="22.9167" stroke-linejoin="round" stroke-miterlimit="10" fill="#C00000"/></g><g><text fill="#404040" font-family="Arial,Arial_MSFontService,sans-serif" font-weight="400" font-size="50" transform="matrix(1 0 0 1 984.911 1422)">0,5%</text></g><g><text fill="#404040" font-family="Arial,Arial_MSFontService,sans-serif" font-weight="400" font-size="50" transform="matrix(1 0 0 1 1028.23 1361)">1,0%</text></g><g><text fill="#404040" font-family="Arial,Arial_MSFontService,sans-serif" font-weight="400" font-size="50" transform="matrix(1 0 0 1 1036.89 1299)">1,1%</text></g><g><text fill="#404040" font-family="Arial,Arial_MSFontService,sans-serif" font-weight="400" font-size="50" transform="matrix(1 0 0 1 1088.88 1177)">1,7%</text></g><g><text fill="#404040" font-family="Arial,Arial_MSFontService,sans-serif" font-weight="400" font-size="50" transform="matrix(1 0 0 1 1097.54 1115)">1,8%</text></g><g><text fill="#404040" font-family="Arial,Arial_MSFontService,sans-serif" font-weight="400" font-size="50" transform="matrix(1 0 0 1 1123.53 1054)">2,1%</text></g><g><text fill="#404040" font-family="Arial,Arial_MSFontService,sans-serif" font-weight="400" font-size="50" transform="matrix(1 0 0 1 1158.19 993)">2,5%</text></g><g><text fill="#404040" font-family="Arial,Arial_MSFontService,sans-serif" font-weight="400" font-size="50" transform="matrix(1 0 0 1 1166.85 931)">2,6%</text></g><g><text fill="#404040" font-family="Arial,Arial_MSFontService,sans-serif" font-weight="400" font-size="50" transform="matrix(1 0 0 1 1279.48 870)">3,9%</text></g><g><text fill="#404040" font-family="Arial,Arial_MSFontService,sans-serif" font-weight="400" font-size="50" transform="matrix(1 0 0 1 1435.43 809)">5,7%</text></g><g><text fill="#404040" font-family="Arial,Arial_MSFontService,sans-serif" font-weight="400" font-size="50" transform="matrix(1 0 0 1 1461.42 747)">6,0%</text></g><g><text fill="#404040" font-family="Arial,Arial_MSFontService,sans-serif" font-weight="400" font-size="50" transform="matrix(1 0 0 1 1868.61 686)">10,7%</text></g><g><text fill="#404040" font-family="Arial,Arial_MSFontService,sans-serif" font-weight="400" font-size="50" transform="matrix(1 0 0 1 2001.07 624)">12,3%</text></g><g><text font-family="Arial,Arial_MSFontService,sans-serif" font-weight="400" font-size="50" transform="matrix(1 0 0 1 609.895 1421)">USA   (35)</text></g><g><text font-family="Arial,Arial_MSFontService,sans-serif" font-weight="400" font-size="50" transform="matrix(1 0 0 1 537.019 1359)">Storbrit.   (13)</text></g><g><text font-family="Arial,Arial_MSFontService,sans-serif" font-weight="400" font-size="50" transform="matrix(1 0 0 1 511.766 1298)">Tyskland   (12)</text></g><g><text font-family="Arial,Arial_MSFontService,sans-serif" font-weight="400" font-size="50" transform="matrix(1 0 0 1 573.32 1175)">Belgien (10)</text></g><g><text font-family="Arial,Arial_MSFontService,sans-serif" font-weight="400" font-size="50" transform="matrix(1 0 0 1 612.622 1114)">Polen   (9)</text></g><g><text font-family="Arial,Arial_MSFontService,sans-serif" font-weight="400" font-size="50" transform="matrix(1 0 0 1 556.568 1052)">Egypten   (8)</text></g><g><text font-family="Arial,Arial_MSFontService,sans-serif" font-weight="400" font-size="50" transform="matrix(1 0 0 1 562.137 991)">Lettland   (7)</text></g><g><text font-family="Arial,Arial_MSFontService,sans-serif" font-weight="400" font-size="50" transform="matrix(1 0 0 1 576.139 930)">Litauen   (6)</text></g><g><text font-family="Arial,Arial_MSFontService,sans-serif" font-weight="400" font-size="50" transform="matrix(1 0 0 1 607.031 868)">Island   (5)</text></g><g><text font-family="Arial,Arial_MSFontService,sans-serif" font-weight="400" font-size="50" transform="matrix(1 0 0 1 537.02 807)">Danmark   (4)</text></g><g><text font-family="Arial,Arial_MSFontService,sans-serif" font-weight="400" font-size="50" transform="matrix(1 0 0 1 573.412 746)">Estland   (3)</text></g><g><text font-family="Arial,Arial_MSFontService,sans-serif" font-weight="400" font-size="50" transform="matrix(1 0 0 1 576.185 684)">Finland   (2)</text></g><g><text font-family="Arial,Arial_MSFontService,sans-serif" font-weight="400" font-size="50" transform="matrix(1 0 0 1 604.235 623)">Norge   (1)</text></g><g><text font-family="Arial,Arial_MSFontService,sans-serif" font-weight="700" font-size="64" transform="matrix(1 0 0 1 611.794 428)">SVERIGES ANDEL AV MOTTAGANDE LANDS </text></g><g><text font-family="Arial,Arial_MSFontService,sans-serif" font-weight="700" font-size="64" transform="matrix(1 0 0 1 1174.49 503)">IMPORT</text></g><text font-family="Arial,Arial_MSFontService,sans-serif" font-weight="400" font-size="46" transform="matrix(1 0 0 1 892.878 1530)">Källa: SCB; TelluBase; Tellusant analys</text><text font-family="Arial,Arial_MSFontService,sans-serif" font-weight="400" font-size="46" transform="matrix(1 0 0 1 794.544 557)">▼</text><text font-family="Arial,Arial_MSFontService,sans-serif" font-weight="400" font-size="46" transform="matrix(1 0 0 1 839.804 557)">Rangordning</text></g></svg>